<svg xmlns="http://www.w3.org/2000/svg" version="1.1" xmlns:xlink="http://www.w3.org/1999/xlink" xmlns:svgjs="http://svgjs.dev/svgjs" width="1000" height="623" viewBox="0 0 1000 623"><g transform="matrix(1,0,0,1,-0.6060606060606233,0.2522267206477409)"><svg viewBox="0 0 396 247" data-background-color="#ffffff" preserveAspectRatio="xMidYMid meet" height="623" width="1000" xmlns="http://www.w3.org/2000/svg" xmlns:xlink="http://www.w3.org/1999/xlink"><g id="tight-bounds" transform="matrix(1,0,0,1,0.2400000000000091,-0.09999999999999432)"><svg viewBox="0 0 395.52 247.2" height="247.2" width="395.52"><g><svg viewBox="0 0 395.52 247.2" height="247.2" width="395.52"><g transform="matrix(1,0,0,1,0,95.38079592968779)"><svg viewBox="0 0 395.52 56.4384081406244" height="56.4384081406244" width="395.52"><g><svg viewBox="0 0 474.853545778234 67.75884461886793" height="56.4384081406244" width="395.52"><g transform="matrix(1,0,0,1,0,9.364644950943397)"><svg viewBox="0 0 395.52 49.02955471698113" height="49.02955471698113" width="395.52"><g><svg viewBox="0 0 395.52 49.02955471698113" height="49.02955471698113" width="395.52"><g><svg viewBox="0 0 395.52 49.02955471698113" height="49.02955471698113" width="395.52"><g transform="matrix(1,0,0,1,0,0)"><svg width="395.52" viewBox="1.7 -32.45 264.98 32.85" height="49.02955471698113" data-palette-color="#001f3f"><path d="M17.8-32.45Q22.85-32.45 27.2-30.3L27.2-30.3 26.15-25.5 25.6-25.45Q23.15-26.9 21.15-27.53 19.15-28.15 16.95-28.15L16.95-28.15Q11.95-28.15 9.5-25.13 7.05-22.1 7.05-15.6L7.05-15.6Q7.05-9.4 9.35-6.63 11.65-3.85 16.65-3.85L16.65-3.85Q17.9-3.85 19.13-4.08 20.35-4.3 22.2-4.85L22.2-4.85 22.35-8.1 22.2-13.05 27.05-13.4 26.95-8.9 27.1-1.55Q20.9 0.4 16.35 0.4L16.35 0.4Q9 0.4 5.35-3.68 1.7-7.75 1.7-15.35L1.7-15.35Q1.7-23.65 5.88-28.05 10.05-32.45 17.8-32.45L17.8-32.45ZM58.1-32.1L57.95-15.8 57.9-12Q58-6.1 54.7-2.85 51.4 0.4 45.35 0.4L45.35 0.4Q39.5 0.4 36.4-2.73 33.3-5.85 33.4-11.6L33.4-11.6 33.5-16.05 33.4-32.1 38.5-32.1 38.3-12.3Q38.25-8.1 40.1-6.05 41.95-4 45.7-4L45.7-4Q53.2-4 53.15-11.8L53.15-11.8 52.9-32.1 58.1-32.1ZM91.59-32.2L91.3-9.6 91.45 0 85.9 0 70.8-24.05 70.45-24.05 70.4-10.75 70.55 0 65.84 0 66.09-9.5 65.9-32.1 71.34-32.1 86.5-8.05 86.9-8.05 86.8-31.85 91.59-32.2ZM105.49-32.1L105.19-10.1 105.44 0 100.19 0 100.54-9.65 100.19-32.1 105.49-32.1ZM139.94-32.2L139.64-9.6 139.79 0 134.24 0 119.14-24.05 118.79-24.05 118.74-10.75 118.89 0 114.19 0 114.44-9.5 114.24-32.1 119.69-32.1 134.84-8.05 135.24-8.05 135.14-31.85 139.94-32.2ZM153.84-32.1L153.54-10.1 153.79 0 148.54 0 148.89-9.65 148.54-32.1 153.84-32.1ZM186.88-4.3L187.23-3.85 186.83 0 170.33 0 170.68-9.65 170.33-32.1 175.63-32.1 175.33-10.1 175.43-4.3 186.88-4.3ZM205.48-32.1L215.83 0 210.53 0 209.78-3.6 208.38-8.05 201.58-8.2 195.43-8.05 193.93-3.85 193.13 0 187.98 0 199.43-32.1 205.48-32.1ZM201.93-12.15L207.08-12.25 202.48-27.05 202.13-27.05 196.88-12.25 201.93-12.15ZM236.08-16.7Q239.43-16 241.05-14.08 242.68-12.15 242.68-9L242.68-9Q242.68 0.2 228.93 0.2L228.93 0.2Q224.18 0.2 221.13 0L221.13 0 221.08 0 221.43-9.65 221.08-32.1 231.08-32.15Q235.73-32.15 238.3-30.13 240.88-28.1 240.88-24.25L240.88-24.25Q240.88-21.55 239.63-19.63 238.38-17.7 236.08-16.7L236.08-16.7ZM235.58-23.65Q235.58-26.05 234.23-27.1 232.88-28.15 229.68-28.15L229.68-28.15 226.28-28.15 226.13-18.3 231.28-18.15Q233.48-18.7 234.53-20.03 235.58-21.35 235.58-23.65L235.58-23.65ZM229.78-3.8Q233.48-3.8 235.48-5.2 237.48-6.6 237.48-9.3L237.48-9.3Q237.48-13.6 231.93-14.35L231.93-14.35 226.08-14.3 226.03-10.1 226.18-3.95Q228.13-3.8 229.78-3.8L229.78-3.8ZM258.18-32.45Q261.98-32.45 265.78-30.85L265.78-30.85 264.93-26.15 264.13-25.85Q262.53-27 260.83-27.65 259.13-28.3 257.58-28.3L257.58-28.3Q255.13-28.3 253.68-26.95 252.23-25.6 252.23-23.8L252.23-23.8Q252.23-22.05 253.68-20.93 255.13-19.8 258.23-18.35L258.23-18.35Q260.93-17.05 262.6-16 264.28-14.95 265.48-13.23 266.68-11.5 266.68-9.1L266.68-9.1Q266.68-6.5 265.25-4.33 263.83-2.15 261.25-0.88 258.68 0.4 255.38 0.4L255.38 0.4Q253.18 0.4 250.83-0.15 248.48-0.7 246.38-1.75L246.38-1.75 247.03-6.85 247.68-7.15Q249.53-5.4 251.75-4.53 253.98-3.65 255.88-3.65L255.88-3.65Q258.48-3.65 260.03-5.03 261.58-6.4 261.58-8.3L261.58-8.3Q261.58-10.2 260.08-11.38 258.58-12.55 255.48-14L255.48-14Q252.83-15.25 251.18-16.28 249.53-17.3 248.35-19 247.18-20.7 247.18-23.1L247.18-23.1Q247.18-25.7 248.58-27.85 249.98-30 252.48-31.23 254.98-32.45 258.18-32.45L258.18-32.45Z" opacity="1" transform="matrix(1,0,0,1,0,0)" fill="#001f3f" class="undefined-text-0" data-fill-palette-color="primary" id="text-0"></path></svg></g></svg></g></svg></g></svg></g><g transform="matrix(1,0,0,1,407.094701159366,0)"><svg viewBox="0 0 67.75884461886793 67.75884461886793" height="67.75884461886793" width="67.75884461886793"><g data-palette-color="#ed2647"><rect width="18.520750862490566" height="67.75884461886793" fill="#ed2647" stroke="transparent" data-fill-palette-color="accent" x="0" fill-opacity="1"></rect><rect width="18.520750862490566" height="67.75884461886793" fill="#ed2647" stroke="transparent" data-fill-palette-color="accent" x="22.58628153962264" fill-opacity="0.75"></rect><rect width="18.520750862490566" height="67.75884461886793" fill="#ed2647" stroke="transparent" data-fill-palette-color="accent" x="45.17256307924528" fill-opacity="0.5"></rect></g></svg></g></svg></g></svg></g></svg></g><defs></defs></svg><rect width="395.52" height="247.2" fill="none" stroke="none" visibility="hidden"></rect></g></svg></g></svg>