<svg xmlns="http://www.w3.org/2000/svg" version="1.1" xmlns:xlink="http://www.w3.org/1999/xlink" xmlns:svgjs="http://svgjs.dev/svgjs" width="1000" height="136" viewBox="0 0 1000 136"><g transform="matrix(1,0,0,1,-0.6060604751442042,0.3000746297278738)"><svg viewBox="0 0 396 54" data-background-color="#1b4571" preserveAspectRatio="xMidYMid meet" height="136" width="1000" xmlns="http://www.w3.org/2000/svg" xmlns:xlink="http://www.w3.org/1999/xlink"><g id="tight-bounds" transform="matrix(1,0,0,1,0.2400000518429124,-0.11914727945077175)"><svg viewBox="0 0 395.52 54.238294558901515" height="54.238294558901515" width="395.52"><g><svg viewBox="0 0 471.16940813579566 64.61221972495089" height="54.238294558901515" width="395.52"><g transform="matrix(1,0,0,1,0,8.92976408644401)"><svg viewBox="0 0 395.52 46.75269155206287" height="46.75269155206287" width="395.52"><g><svg viewBox="0 0 395.52 46.75269155206287" height="46.75269155206287" width="395.52"><g><svg viewBox="0 0 395.52 46.75269155206287" height="46.75269155206287" width="395.52"><g transform="matrix(1,0,0,1,0,0)"><svg width="395.52" viewBox="2.9000000953674316 -35.5 305.3800048828125 36.099998474121094" height="46.75269155206287" data-palette-color="#ffffff"><path d="M27.25 0L27.25-5.1 27.1-5.1Q26.45-2.65 23.93-1.03 21.4 0.6 17.4 0.6L17.4 0.6Q14.2 0.6 11.53-0.58 8.85-1.75 6.95-4.03 5.05-6.3 3.98-9.68 2.9-13.05 2.9-17.45L2.9-17.45Q2.9-21.8 3.95-25.18 5-28.55 6.95-30.83 8.9-33.1 11.65-34.3 14.4-35.5 17.75-35.5L17.75-35.5Q22.45-35.5 25.6-33.4 28.75-31.3 30.45-27.85L30.45-27.85 27-25.75Q25.8-28.55 23.43-30.15 21.05-31.75 17.75-31.75L17.75-31.75Q15.45-31.75 13.55-30.93 11.65-30.1 10.28-28.6 8.9-27.1 8.15-25 7.4-22.9 7.4-20.3L7.4-20.3 7.4-14.65Q7.4-12.05 8.15-9.93 8.9-7.8 10.28-6.3 11.65-4.8 13.65-3.98 15.65-3.15 18.15-3.15L18.15-3.15Q19.95-3.15 21.58-3.63 23.2-4.1 24.43-5.05 25.65-6 26.35-7.43 27.05-8.85 27.05-10.8L27.05-10.8 27.05-14.25 19.35-14.25 19.35-17.95 31.15-17.95 31.15 0 27.25 0ZM39.15-34.9L43.35-34.9 43.35-13.3Q43.35-8.3 45.2-5.73 47.05-3.15 51.7-3.15L51.7-3.15Q56.35-3.15 58.2-5.73 60.05-8.3 60.05-13.3L60.05-13.3 60.05-34.9 64.25-34.9 64.25-14.3Q64.25-10.5 63.57-7.7 62.9-4.9 61.4-3.05 59.9-1.2 57.47-0.3 55.05 0.6 51.55 0.6L51.55 0.6Q48.05 0.6 45.67-0.3 43.3-1.2 41.85-3.05 40.4-4.9 39.77-7.7 39.15-10.5 39.15-14.3L39.15-14.3 39.15-34.9ZM94.5 0L81.75-21.3 77.55-29.05 77.4-29.05 77.4 0 73.3 0 73.3-34.9 78.15-34.9 90.9-13.6 95.1-5.85 95.25-5.85 95.25-34.9 99.35-34.9 99.35 0 94.5 0ZM120.99 0L106.99 0 106.99-3.5 111.89-3.5 111.89-31.4 106.99-31.4 106.99-34.9 120.99-34.9 120.99-31.4 116.09-31.4 116.09-3.5 120.99-3.5 120.99 0ZM149.84 0L137.09-21.3 132.89-29.05 132.74-29.05 132.74 0 128.64 0 128.64-34.9 133.49-34.9 146.24-13.6 150.44-5.85 150.59-5.85 150.59-34.9 154.69-34.9 154.69 0 149.84 0ZM176.34 0L162.34 0 162.34-3.5 167.24-3.5 167.24-31.4 162.34-31.4 162.34-34.9 176.34-34.9 176.34-31.4 171.44-31.4 171.44-3.5 176.34-3.5 176.34 0ZM214.83 0L195.78 0 195.78-34.9 199.98-34.9 199.98-3.7 214.83-3.7 214.83 0ZM248.03 0L243.63 0 240.13-10.3 226.03-10.3 222.53 0 218.28 0 230.48-34.9 235.83-34.9 248.03 0ZM239.08-14L233.18-31 232.93-31 227.03-14 239.08-14ZM253.83 0L253.83-34.9 268.18-34.9Q272.53-34.9 275-32.45 277.48-30 277.48-25.9L277.48-25.9Q277.48-23.95 276.93-22.6 276.38-21.25 275.53-20.38 274.68-19.5 273.68-19.07 272.68-18.65 271.83-18.5L271.83-18.5 271.83-18.2Q272.78-18.15 273.95-17.7 275.13-17.25 276.18-16.28 277.23-15.3 277.95-13.78 278.68-12.25 278.68-10.1L278.68-10.1Q278.68-7.95 278-6.1 277.33-4.25 276.13-2.9 274.93-1.55 273.28-0.78 271.63 0 269.68 0L269.68 0 253.83 0ZM258.03-16.2L258.03-3.7 268.38-3.7Q271.08-3.7 272.63-5.08 274.18-6.45 274.18-9.1L274.18-9.1 274.18-10.8Q274.18-13.45 272.63-14.83 271.08-16.2 268.38-16.2L268.38-16.2 258.03-16.2ZM258.03-31.2L258.03-19.8 267.68-19.8Q270.18-19.8 271.58-21.05 272.98-22.3 272.98-24.65L272.98-24.65 272.98-26.35Q272.98-28.7 271.58-29.95 270.18-31.2 267.68-31.2L267.68-31.2 258.03-31.2ZM296.28 0.6L296.28 0.6Q292.03 0.6 289.03-1.03 286.03-2.65 283.93-5.5L283.93-5.5 287.03-8.1Q288.88-5.65 291.13-4.38 293.38-3.1 296.43-3.1L296.43-3.1Q300.18-3.1 302.15-4.9 304.13-6.7 304.13-9.7L304.13-9.7Q304.13-12.2 302.63-13.55 301.13-14.9 297.68-15.7L297.68-15.7 294.83-16.35Q290.03-17.45 287.5-19.68 284.98-21.9 284.98-25.95L284.98-25.95Q284.98-28.25 285.83-30.05 286.68-31.85 288.2-33.05 289.73-34.25 291.85-34.88 293.98-35.5 296.53-35.5L296.53-35.5Q300.48-35.5 303.3-34.05 306.13-32.6 308.08-29.8L308.08-29.8 304.93-27.5Q303.48-29.5 301.43-30.65 299.38-31.8 296.33-31.8L296.33-31.8Q292.98-31.8 291.05-30.38 289.13-28.95 289.13-26.1L289.13-26.1Q289.13-23.6 290.75-22.33 292.38-21.05 295.68-20.3L295.68-20.3 298.53-19.65Q303.68-18.5 305.98-16.15 308.28-13.8 308.28-9.9L308.28-9.9Q308.28-7.5 307.45-5.55 306.63-3.6 305.08-2.25 303.53-0.9 301.3-0.15 299.08 0.6 296.28 0.6Z" opacity="1" transform="matrix(1,0,0,1,0,0)" fill="#ffffff" class="undefined-text-0" data-fill-palette-color="primary" id="text-0"></path></svg></g></svg></g></svg></g></svg></g><g transform="matrix(1,0,0,1,406.5571884108448,0)"><svg viewBox="0 0 64.61221972495089 64.61221972495089" height="64.61221972495089" width="64.61221972495089"><g data-palette-color="#bf2051"><rect width="17.66067339148658" height="64.61221972495089" fill="#bf2051" stroke="transparent" data-fill-palette-color="accent" x="0" fill-opacity="1"></rect><rect width="17.66067339148658" height="64.61221972495089" fill="#bf2051" stroke="transparent" data-fill-palette-color="accent" x="21.53740657498363" fill-opacity="0.75"></rect><rect width="17.66067339148658" height="64.61221972495089" fill="#bf2051" stroke="transparent" data-fill-palette-color="accent" x="43.07481314996726" fill-opacity="0.5"></rect></g></svg></g></svg></g><defs></defs></svg><rect width="395.52" height="54.238294558901515" fill="none" stroke="none" visibility="hidden"></rect></g></svg></g></svg>